<?xml version="1.0" standalone="no"?><!DOCTYPE svg PUBLIC "-//W3C//DTD SVG 1.1//EN" "http://www.w3.org/Graphics/SVG/1.1/DTD/svg11.dtd"><svg t="1520602687049" class="icon" style="" viewBox="0 0 1024 1024" version="1.1" xmlns="http://www.w3.org/2000/svg" p-id="9842" xmlns:xlink="http://www.w3.org/1999/xlink" width="32" height="32"><defs><style type="text/css"></style></defs><path d="M480 64C215.04 64 0 279.04 0 544 0 808.96 215.04 1024 480 1024S960 808.96 960 544C960 279.04 744.96 64 480 64zM544 448C561.92 448 576 462.08 576 480 576 497.92 561.92 512 544 512L320.64 512C319.36 522.24 317.44 533.12 317.44 544S319.36 565.76 320.64 576L544 576C561.92 576 576 590.08 576 608 576 625.92 561.92 640 544 640L339.84 640c35.84 75.52 111.36 128 199.68 128 39.04 0 77.44-10.24 111.36-30.08 14.72-8.96 34.56-3.84 43.52 11.52 8.96 15.36 3.84 34.56-11.52 43.52C639.36 818.56 590.08 832 539.52 832c-124.16 0-228.48-80.64-268.16-192L224 640C206.08 640 192 625.92 192 608 192 590.08 206.08 576 224 576l33.28 0C256 565.12 254.08 554.88 254.08 544 254.08 533.12 256 522.88 257.28 512L224 512C206.08 512 192 497.92 192 480 192 462.08 206.08 448 224 448l47.36 0C311.04 336.64 416 256 539.52 256c50.56 0 99.84 13.44 142.72 38.4 15.36 8.96 20.48 28.16 11.52 43.52-8.96 15.36-28.16 20.48-43.52 11.52C616.96 330.24 578.56 320 539.52 320 451.2 320 375.68 372.48 339.84 448L544 448z" p-id="9843" fill="#13227a"></path></svg>