<?xml version="1.0" standalone="no"?><!DOCTYPE svg PUBLIC "-//W3C//DTD SVG 1.1//EN" "http://www.w3.org/Graphics/SVG/1.1/DTD/svg11.dtd">
<svg t="1520603088272" class="icon" style="" viewBox="0 0 1024 1024" version="1.1" xmlns="http://www.w3.org/2000/svg" p-id="10694" xmlns:xlink="http://www.w3.org/1999/xlink" width="32" height="32">
<rect x="0" y="0" width="1000" height="1000" fill="magenta" stroke-width="0" stroke="rgb(0,0,0)"/>
<path d="M725.997 542.34c68.496-22.256 103.965-61.99 121.268-105.916-22.534-10.632-38.477-23.387-38.477-23.387s5.739-20.921 18.508-43.561c-39.623-24.914-93.883-41.807-163.682-19.128-37.446 12.167-66.625 39.783-87.982 67.998 19.952-28.873 36.831-64.805 36.831-103.756 0-74.261-28.522-120.873-66.684-150.822-17.099 18.19-34.203 29.442-34.203 29.442s-16.155-10.629-32.76-27.925c-35.725 29.999-68.225 76.287-68.225 149.305 0 39.373 17.248 75.658 37.482 104.689-21.295-27.898-50.251-55.054-87.297-67.091-71.514-23.236-125.102-9.898-165.557 17.842 10.626 20.353 15.445 37.914 15.445 37.914s-14.153 11.321-34.636 21.523c17.039 44.342 50.944 91.506 122.366 114.712 37.426 12.16 77.241 6.981 111.091-3.28-33.096 11.634-67.845 30.78-90.727 62.275-43.228 59.499-47.883 113.5-35.079 159.859 21.414-3.33 38.222-2.549 38.222-2.549s6.93 18.387 10.166 42.419c48.112-1.893 104.903-18.989 150.008-81.072 23.143-31.854 30.516-71.346 31.211-106.725 0.83 35.086 8.294 74.076 31.189 105.588 42.066 57.899 90.469 79.453 137.316 82.55 3.372-22.643 9.769-39.613 9.769-39.613s21.878-1.015 47.512 4.216c12.563-46.056 13.208-104.578-31.28-165.811-23.108-31.806-58.321-51.02-91.709-62.619 33.596 10.025 72.923 14.942 109.914 2.923zM571.72 460.537c4.801-2.772 10.94-1.127 13.711 3.674 2.772 4.801 1.127 10.94-3.674 13.711-4.562 2.634-10.327 1.273-13.268-2.988l-49.783 28.742-0.813-1.408 49.782-28.742c-2.222-4.677-0.519-10.354 4.045-12.989z m-31.125-23.712c2.772-4.801 8.911-6.446 13.711-3.674s6.446 8.911 3.674 13.711c-2.634 4.562-8.306 6.266-12.984 4.046l-28.535 49.424-1.408-0.813 28.535-49.423c-4.265-2.939-5.628-8.707-2.993-13.271zM511.76 421.88c5.543 0 10.037 4.494 10.037 10.037 0 5.268-4.061 9.58-9.221 9.996v57.031h-1.626v-57.031c-5.164-0.413-9.228-4.726-9.228-9.997 0.001-5.542 4.495-10.036 10.038-10.036z m-42.401 11.361c4.801-2.772 10.94-1.127 13.711 3.674 2.634 4.562 1.273 10.327-2.988 13.268l28.528 49.413-1.408 0.813-28.528-49.413c-4.679 2.224-10.355 0.521-12.99-4.043-2.77-4.802-1.125-10.94 3.675-13.712z m-31.06 31.125c2.772-4.801 8.911-6.446 13.711-3.674 4.562 2.634 6.266 8.306 4.046 12.984l49.763 28.731-0.803 1.392v0.022l-49.773-28.736c-2.94 4.265-8.707 5.628-13.271 2.993-4.799-2.772-6.444-8.911-3.673-13.712z m-11.335 42.486c0-5.544 4.494-10.037 10.037-10.037 5.268 0 9.58 4.06 9.996 9.221h58.02v1.451l0.101 0.175h-58.121c-0.413 5.164-4.726 9.228-9.997 9.228-5.543-0.001-10.036-4.495-10.036-10.038z m25.136 46.135c-4.801 2.772-10.94 1.127-13.711-3.674-2.772-4.801-1.127-10.94 3.674-13.711 4.562-2.634 10.327-1.273 13.268 2.988l50.733-29.291 0.797 1.381 0.031 0.018-50.748 29.3c2.224 4.678 0.521 10.354-4.044 12.989z m31.126 23.712c-2.772 4.801-8.911 6.446-13.711 3.674-4.801-2.772-6.446-8.911-3.674-13.711 2.634-4.562 8.306-6.266 12.984-4.046l29.498-51.092 1.408 0.813-29.498 51.092c4.265 2.939 5.628 8.706 2.993 13.27zM512 591.709c-5.543 0-10.037-4.494-10.037-10.037 0-5.268 4.061-9.58 9.221-9.996v-59.152h1.626v59.152c5.164 0.413 9.228 4.726 9.228 9.997-0.001 5.542-4.495 10.036-10.038 10.036z m42.461-11.425c-4.801 2.772-10.94 1.127-13.711-3.674-2.634-4.562-1.273-10.327 2.988-13.268l-29.504-51.103 1.408-0.813 29.504 51.103c4.679-2.224 10.355-0.521 12.99 4.043 2.771 4.801 1.126 10.94-3.675 13.712z m31.06-31.126c-2.772 4.801-8.911 6.446-13.711 3.674-4.562-2.634-6.266-8.306-4.046-12.984l-50.752-29.302 0.813-1.408 50.752 29.302c2.94-4.265 8.707-5.628 13.271-2.993 4.8 2.771 6.445 8.91 3.673 13.711z m1.299-32.448c-5.268 0-9.58-4.061-9.996-9.221h-58.047l0.002-0.003v-1.623h58.045c0.413-5.164 4.726-9.228 9.997-9.228 5.544 0 10.037 4.494 10.037 10.037-0.001 5.544-4.495 10.038-10.038 10.038z" fill="white"></path>
</svg>