<?xml version="1.0" standalone="no"?><!DOCTYPE svg PUBLIC "-//W3C//DTD SVG 1.1//EN" "http://www.w3.org/Graphics/SVG/1.1/DTD/svg11.dtd"><svg t="1520602799718" class="icon" style="" viewBox="0 0 1543 1024" version="1.1" xmlns="http://www.w3.org/2000/svg" p-id="10274" xmlns:xlink="http://www.w3.org/1999/xlink" width="48.21875" height="32"><defs><style type="text/css"></style></defs><path d="M8.784314 1017.72549h1517.17647V8.784314H8.784314v1008.941176z m1519.686274 2.509804V1016.470588v3.764706zM2.509804 1024V1.254902h1529.72549v1021.490196H2.509804z" fill="#353636" p-id="10275"></path><path d="M6.27451 5.019608h1523.45098v1015.215686H6.27451z" fill="#FFFFFF" p-id="10276"></path><path d="M1016.470588 489.411765c12.54902 138.039216-89.098039 259.764706-227.137255 272.313725-138.039216 12.54902-259.764706-89.098039-272.313725-227.137255-12.54902-138.039216 89.098039-259.764706 227.137255-272.313725C882.196078 250.980392 1003.921569 352.627451 1016.470588 489.411765z" fill="#CC303C" p-id="10277"></path><path d="M553.411765 382.745098c-36.392157 58.980392-17.568627 135.529412 42.666666 171.921569 58.980392 36.392157 135.529412 16.313725 171.921569-42.666667 36.392157-58.980392 112.941176-77.803922 171.921569-42.666667 58.980392 36.392157 77.803922 112.941176 42.666666 171.921569-71.529412 117.960784-225.882353 155.607843-343.843137 84.078431-119.215686-70.27451-156.862745-223.372549-85.333333-342.588235z" fill="#005C9E" p-id="10278"></path><path d="M235.13098 310.939608L375.466667 102.876863l32.25098 21.76-140.348235 208.062745zM285.339608 344.696471L425.738039 136.658824l32.250981 21.76-140.398432 208.037647zM335.058824 378.980392l32.627451 21.333333 140.549019-208.313725-32.627451-22.588235zM1101.741176 720.589804L1167.058824 623.861961l32.238431 21.772549-65.305098 96.727843zM1026.534902 834.007843l65.204706-96.790588 32.263529 21.734902-65.204706 96.790588zM1151.184314 755.338039l65.355294-96.690196 32.225882 21.785098-65.355294 96.690196zM1076.705882 867.137255l32.627451 21.333333 65.254902-96.627451-32.627451-21.333333zM1201.53098 789.157647l65.204706-96.790588 32.26353 21.734902-65.204706 96.790588zM1126.111373 900.856471l65.054117-96.890981 32.301177 21.684706-65.066667 96.89098zM1217.254902 366.431373l32.627451-21.333334-140.54902-208.313725-32.627451 21.333333zM1126.312157 123.971765l32.25098-21.785098 65.317647 96.715294-32.238431 21.772549zM1202.17098 236.900392l32.225883-21.797647 65.380392 96.665098-32.213333 21.797647zM1026.095686 191.824314l32.276079-21.709804 65.15451 96.828235-32.288628 21.709804zM1101.276863 303.573333l32.25098-21.734902 65.229804 96.77804-32.263529 21.747451zM334.343529 646.500392l32.238432-21.772549 140.498823 207.987451-32.25098 21.772549zM235.218824 713.512157l32.25098-21.734902 140.260392 208.138039-32.263529 21.734902zM284.875294 681.173333l32.250981-21.747451 65.254901 96.77804-32.263529 21.747451zM425.411765 888.470588l32.627451-21.333333-65.254902-96.627451-32.627451 21.333333z" fill="#231815" p-id="10279"></path></svg>