<?xml version="1.0" standalone="no"?><!DOCTYPE svg PUBLIC "-//W3C//DTD SVG 1.1//EN" "http://www.w3.org/Graphics/SVG/1.1/DTD/svg11.dtd"><svg t="1607934296851" class="icon" viewBox="0 0 1024 1024" version="1.1" xmlns="http://www.w3.org/2000/svg" p-id="3217" width="32" height="32" xmlns:xlink="http://www.w3.org/1999/xlink"><defs><style type="text/css"></style></defs><path d="M510.813476 911.968437c-3.949962 0-7.854898-1.010003-11.435447-2.938935-4.41045-2.481518-109.394503-61.232596-215.984123-157.464311-63.066361-56.912198-113.412003-115.111714-149.723-173.080987-46.278-73.90829-69.704548-147.654898-69.704548-219.198328 0-136.172379 110.770849-246.942205 246.941182-246.942205 46.096874 0 95.064123 17.271362 137.873114 48.644907 25.009603 18.327414 46.324048 40.444131 62.032822 63.917752 15.712867-23.473621 37.025265-45.590338 62.014402-63.917752 42.807968-31.373545 91.775216-48.644907 137.891534-48.644907 136.151913 0 246.943228 110.769826 246.943228 246.942205 0 71.54343-23.471574 145.290037-69.727061 219.198328-36.241412 57.96825-86.631056 116.167766-149.654438 173.080987-106.568131 96.231715-211.574696 154.982794-215.983099 157.464311-3.581572 1.928932-7.484462 2.938935-11.43647 2.938935L510.813476 911.968437z" p-id="3218" fill="#d81e06"></path></svg>