<?xml version="1.0" standalone="no"?><!DOCTYPE svg PUBLIC "-//W3C//DTD SVG 1.1//EN" "http://www.w3.org/Graphics/SVG/1.1/DTD/svg11.dtd"><svg t="1520327810029" class="icon" style="" viewBox="0 0 1098 1024" version="1.1" xmlns="http://www.w3.org/2000/svg" p-id="4616" xmlns:xlink="http://www.w3.org/1999/xlink" width="25.734375" height="24"><defs><style type="text/css"></style></defs><path d="M219.414528 914.292736l0-73.138176q0-14.856192-10.856448-25.71264t-25.71264-10.856448l-73.138176 0q-14.856192 0-25.71264 10.856448t-10.856448 25.71264l0 73.138176q0 14.856192 10.856448 25.71264t25.71264 10.856448l73.138176 0q14.856192 0 25.71264-10.856448t10.856448-25.71264zm0-219.414528l0-73.138176q0-14.856192-10.856448-25.71264t-25.71264-10.856448l-73.138176 0q-14.856192 0-25.71264 10.856448t-10.856448 25.71264l0 73.138176q0 14.856192 10.856448 25.71264t25.71264 10.856448l73.138176 0q14.856192 0 25.71264-10.856448t10.856448-25.71264zm0-219.414528l0-73.138176q0-14.856192-10.856448-25.71264t-25.71264-10.856448l-73.138176 0q-14.856192 0-25.71264 10.856448t-10.856448 25.71264l0 73.138176q0 14.856192 10.856448 25.71264t25.71264 10.856448l73.138176 0q14.856192 0 25.71264-10.856448t10.856448-25.71264zm585.105408 438.829056l0-292.552704q0-14.856192-10.856448-25.71264t-25.71264-10.856448l-438.829056 0q-14.856192 0-25.71264 10.856448t-10.856448 25.71264l0 292.552704q0 14.856192 10.856448 25.71264t25.71264 10.856448l438.829056 0q14.856192 0 25.71264-10.856448t10.856448-25.71264zm-585.105408-658.243584l0-73.138176q0-14.856192-10.856448-25.71264t-25.71264-10.856448l-73.138176 0q-14.856192 0-25.71264 10.856448t-10.856448 25.71264l0 73.138176q0 14.856192 10.856448 25.71264t25.71264 10.856448l73.138176 0q14.856192 0 25.71264-10.856448t10.856448-25.71264zm804.519936 658.243584l0-73.138176q0-14.856192-10.856448-25.71264t-25.71264-10.856448l-73.138176 0q-14.856192 0-25.71264 10.856448t-10.856448 25.71264l0 73.138176q0 14.856192 10.856448 25.71264t25.71264 10.856448l73.138176 0q14.856192 0 25.71264-10.856448t10.856448-25.71264zm-219.414528-438.829056l0-292.552704q0-14.856192-10.856448-25.71264t-25.71264-10.856448l-438.829056 0q-14.856192 0-25.71264 10.856448t-10.856448 25.71264l0 292.552704q0 14.856192 10.856448 25.71264t25.71264 10.856448l438.829056 0q14.856192 0 25.71264-10.856448t10.856448-25.71264zm219.414528 219.414528l0-73.138176q0-14.856192-10.856448-25.71264t-25.71264-10.856448l-73.138176 0q-14.856192 0-25.71264 10.856448t-10.856448 25.71264l0 73.138176q0 14.856192 10.856448 25.71264t25.71264 10.856448l73.138176 0q14.856192 0 25.71264-10.856448t10.856448-25.71264zm0-219.414528l0-73.138176q0-14.856192-10.856448-25.71264t-25.71264-10.856448l-73.138176 0q-14.856192 0-25.71264 10.856448t-10.856448 25.71264l0 73.138176q0 14.856192 10.856448 25.71264t25.71264 10.856448l73.138176 0q14.856192 0 25.71264-10.856448t10.856448-25.71264zm0-219.414528l0-73.138176q0-14.856192-10.856448-25.71264t-25.71264-10.856448l-73.138176 0q-14.856192 0-25.71264 10.856448t-10.856448 25.71264l0 73.138176q0 14.856192 10.856448 25.71264t25.71264 10.856448l73.138176 0q14.856192 0 25.71264-10.856448t10.856448-25.71264zm73.138176-91.42272l0 767.950848q0 37.711872-26.855424 64.567296t-64.567296 26.855424l-914.2272 0q-37.711872 0-64.567296-26.855424t-26.855424-64.567296l0-767.950848q0-37.711872 26.855424-64.567296t64.567296-26.855424l914.2272 0q37.711872 0 64.567296 26.855424t26.855424 64.567296z" p-id="4617" fill="#707070"></path></svg>